<?xml version="1.0"?>
<svg xmlns="http://www.w3.org/2000/svg" xmlns:xlink="http://www.w3.org/1999/xlink" xmlns:svgjs="http://svgjs.com/svgjs" version="1.1" width="512" height="512" x="0" y="0" viewBox="0 0 60 57" style="enable-background:new 0 0 512 512" xml:space="preserve" class=""><g><path xmlns="http://www.w3.org/2000/svg" id="Shape" d="m51.16 34.74c8.2-2.66 8.37-12.49 8.37-12.9 0-.2163702-.0701779-.4269038-.2-.6-.24-.34-6.15-8.19-14.35-5.52-2.2615655.7627698-4.3780141 1.9021358-6.26 3.37.8217756-2.2435265 1.2546558-4.6108403 1.28-7 0-8.62-9.29-11.82-9.68-11.95-.2075731-.07010994-.4324269-.07010994-.64 0-.39.13-9.68 3.33-9.68 12 .0278684 2.3889166.4606714 4.7558076 1.28 7-1.8849025-1.4868824-4.0083514-2.6432829-6.28-3.42-8.19-2.67-14.09 5.18-14.33 5.52-.12982213.1730962-.2.3836298-.2.6 0 .41.17 10.24 8.37 12.9 2.2784024.7174059 4.6629692 1.0387305 7.05.95-1.9826483 1.3288034-3.7242619 2.9858726-5.15 4.9-5.07 7 .57 15 .82 15.36.1205161.1801296.301364.311333.51.37 1.6028575.4589018 3.2627624.6878542 4.93.68 7.1 0 11-4.25 13-11 2.05 6.79 5.93 11 13 11 1.6643665.0036572 3.3208473-.2286542 4.92-.69.208636-.058667.3894839-.1898704.51-.37.25-.34 5.89-8.38.82-15.36-1.4277773-1.9088207-3.1651383-3.5650597-5.14-4.9 2.386353.0897957 4.7705403-.2280959 7.05-.94zm-21.16-32.57c1.52.6 8 3.55 8 9.93 0 5.77-3.26 11.76-6.88 16.22-.18-.07-.12.9-.12-11.22 0-.5522847-.4477153-1-1-1s-1 .4477153-1 1v10.42c-1.2135762-1.812548-2.5748761-3.5216985-4.07-5.11-1.8078685-3.144178-2.8141275-6.6849735-2.93-10.31 0-6.36 6.48-9.32 8-9.93zm-20.54 30.67c-6.05-2-6.87-9.05-7-10.68 1-1.26 5.84-6.51 11.91-4.54 5.5 1.79 10.18 6.73 13.3 11.57-.1.13.76.34-10.7-3.37-.5170805-.1475676-1.0582834.1401931-1.225095.65139-.1668117.511197.1004975 1.0627879.605095 1.24861l9.91 3.22c-2.1049175.5954577-4.155588 1.3682225-6.13 2.31-3.5367484.737118-7.200245.5963464-10.67-.41zm15.84 18.33c-3.73 5.15-10.71 3.74-12.3 3.34-.88-1.39-4.38-7.6-.64-12.74 3.36-4.62 9.56-7.61 15.11-9.07.09.14.55-.58-6.51 9.14-.2643322.4463148-.1435146 1.020651.2782316 1.3226421s1.0043876.2313663 1.3417684-.1626421l6.13-8.44c-.0856276 2.1742917.0113795 4.3519344.29 6.51-.3745135 3.6219068-1.6462033 7.0932762-3.7 10.1zm4.7-19.07c-.5522847 0-1-.4477153-1-1s.4477153-1 1-1 1 .4477153 1 1-.4477153 1-1 1zm17.64 9.67c3.74 5.14.24 11.35-.64 12.74-1.59.4-8.57 1.81-12.3-3.34-3.4-4.68-4.27-11.41-4-17.17.16 0-.42-.77 6.68 9 .192624.3252383.5521755.5140678.9292782.488039s.7073009-.262467.8534132-.611086c.1461122-.3486189.0831645-.7498314-.1626914-1.036953l-6.1-8.44c2.0668956.7664364 4.1943239 1.3585037 6.36 1.77 3.2890614 1.4848516 6.1657316 3.7504869 8.38 6.6zm-14.64-10.48c0-.17-.75.14 10.64-3.57.5045975-.1858221.7719067-.737413.605095-1.24861-.1668116-.5111969-.7080145-.7989576-1.225095-.65139l-9.91 3.18c1.3489188-1.7208457 2.5530325-3.5504295 3.6-5.47 2.4356328-2.6764732 5.4870741-4.7187765 8.89-5.95 6-2 10.87 3.28 11.91 4.54-.1 1.64-.9 8.71-7 10.68-5.45 1.83-12.11.59-17.51-1.51z" fill="#ffffff" data-original="#000000" style="" class=""/></g></svg>
